#File generated from solving marker data for model 3DGaitModelSimple
name static pose
datacolumns 189
datarows 1
range 1.0000000000 1.0000000000
units unknown
enforce_loops no
enforce_constraints no
endheader

time	pelvis_tx	pelvis_ty	pelvis_tz	pelvis_list	pelvis_rotation	pelvis_tilt	hip_flexion_r	hip_adduction_r	hip_rotation_r	knee_angle_r	ankle_angle_r	hip_flexion_l	hip_adduction_l	hip_rotation_l	knee_angle_l	ankle_angle_l	lumbar_extension	lumbar_bending	lumbar_rotation	subtalar_angle_r	mtp_angle_r	subtalar_angle_l	mtp_angle_l	R.ASIS_tx	R.ASIS_ty	R.ASIS_tz	L.ASIS_tx	L.ASIS_ty	L.ASIS_tz	V.Sacral_tx	V.Sacral_ty	V.Sacral_tz	R.Thigh.Upper_tx	R.Thigh.Upper_ty	R.Thigh.Upper_tz	R.Thigh.Front_tx	R.Thigh.Front_ty	R.Thigh.Front_tz	R.Thigh.Rear_tx	R.Thigh.Rear_ty	R.Thigh.Rear_tz	L.Thigh.Upper_tx	L.Thigh.Upper_ty	L.Thigh.Upper_tz	L.Thigh.Front_tx	L.Thigh.Front_ty	L.Thigh.Front_tz	L.Thigh.Rear_tx	L.Thigh.Rear_ty	L.Thigh.Rear_tz	R.Knee.Lat_tx	R.Knee.Lat_ty	R.Knee.Lat_tz	R.Knee.Med_tx	R.Knee.Med_ty	R.Knee.Med_tz	L.Knee.Lat_tx	L.Knee.Lat_ty	L.Knee.Lat_tz	L.Knee.Med_tx	L.Knee.Med_ty	L.Knee.Med_tz	R.Shank.Upper_tx	R.Shank.Upper_ty	R.Shank.Upper_tz	R.Shank.Front_tx	R.Shank.Front_ty	R.Shank.Front_tz	R.Shank.Rear_tx	R.Shank.Rear_ty	R.Shank.Rear_tz	L.Shank.Upper_tx	L.Shank.Upper_ty	L.Shank.Upper_tz	L.Shank.Front_tx	L.Shank.Front_ty	L.Shank.Front_tz	L.Shank.Rear_tx	L.Shank.Rear_ty	L.Shank.Rear_tz	R.Ankle.Lat_tx	R.Ankle.Lat_ty	R.Ankle.Lat_tz	R.Ankle.Med_tx	R.Ankle.Med_ty	R.Ankle.Med_tz	L.Ankle.Lat_tx	L.Ankle.Lat_ty	L.Ankle.Lat_tz	L.Ankle.Med_tx	L.Ankle.Med_ty	L.Ankle.Med_tz	R.Heel_tx	R.Heel_ty	R.Heel_tz	R.Midfoot.Sup_tx	R.Midfoot.Sup_ty	R.Midfoot.Sup_tz	R.Midfoot.Lat_tx	R.Midfoot.Lat_ty	R.Midfoot.Lat_tz	R.Toe.Tip_tx	R.Toe.Tip_ty	R.Toe.Tip_tz	L.Heel_tx	L.Heel_ty	L.Heel_tz	L.Midfoot.Sup_tx	L.Midfoot.Sup_ty	L.Midfoot.Sup_tz	L.Midfoot.Lat_tx	L.Midfoot.Lat_ty	L.Midfoot.Lat_tz	L.Toe.Tip_tx	L.Toe.Tip_ty	L.Toe.Tip_tz	Sternum_tx	Sternum_ty	Sternum_tz	R.Acromium_tx	R.Acromium_ty	R.Acromium_tz	L.Acromium_tx	L.Acromium_ty	L.Acromium_tz	R.Bicep_tx	R.Bicep_ty	R.Bicep_tz	L.Bicep_tx	L.Bicep_ty	L.Bicep_tz	R.Elbow_tx	R.Elbow_ty	R.Elbow_tz	L.Elbow_tx	L.Elbow_ty	L.Elbow_tz	R.Wrist.Med_tx	R.Wrist.Med_ty	R.Wrist.Med_tz	R.Wrist.Lat_tx	R.Wrist.Lat_ty	R.Wrist.Lat_tz	L.Wrist.Med_tx	L.Wrist.Med_ty	L.Wrist.Med_tz	L.Wrist.Lat_tx	L.Wrist.Lat_ty	L.Wrist.Lat_tz	R.Toe.Lat_tx	R.Toe.Lat_ty	R.Toe.Lat_tz	R.Toe.Med_tx	R.Toe.Med_ty	R.Toe.Med_tz	L.Toe.Lat_tx	L.Toe.Lat_ty	L.Toe.Lat_tz	L.Toe.Med_tx	L.Toe.Med_ty	L.Toe.Med_tz	R.Temple_tx	R.Temple_ty	R.Temple_tz	L.Temple_tx	L.Temple_ty	L.Temple_tz	Top.Head_tx	Top.Head_ty	Top.Head_tz	ground_force_vx	ground_force_vy	ground_force_vz	ground_force_px	ground_force_py	ground_force_pz	ground_force_vx	ground_force_vy	ground_force_vz	ground_force_px	ground_force_py	ground_force_pz	ground_torque_x	ground_torque_y	ground_torque_z	ground_torque_x	ground_torque_y	ground_torque_z	
1.0000000000	0.5799842140	1.0354283705	0.0275504239	-0.8073087554	0.6606930681	-1.1850720079	-3.3130441857	-4.6820565318	3.1836942926	0.9938238077	2.5350487625	-0.9067666519	-4.7511009114	-2.4250698792	-2.5368820757	3.0357893180	-0.0063548693	0.7903177957	-0.5061030952	0.0000000000	0.0000000000	0.0000000000	0.0000000000	0.6057048600	1.0729727128	0.1575925930	0.6073686608	1.0605535307	-0.1043995405	0.4084260262	1.0794808136	0.0359950898	0.5430338598	0.7566968518	0.2241645811	0.5932754123	0.6820030487	0.1340721859	0.5223208977	0.6369697548	0.2266120174	0.5158417721	0.7680860715	-0.1682421090	0.6046858177	0.7185554982	-0.1117796448	0.5048784103	0.6589528749	-0.1605297333	0.4755782149	0.5535801605	0.2170611436	0.4691527980	0.5255172836	0.0981779589	0.4768021803	0.5286170018	-0.1502493264	0.4986986797	0.5198109115	-0.0363734882	0.4412334957	0.4691639020	0.2361727410	0.5134062811	0.4240949089	0.1841473715	0.4527716602	0.3840996590	0.2532606169	0.4676789279	0.4503748711	-0.1706435275	0.5169562113	0.3932733031	-0.1278222426	0.4457393864	0.4095999198	-0.1811811928	0.4376367820	0.0981028633	0.2555386679	0.4440399436	0.1035693262	0.1651090648	0.4429738800	0.0936405700	-0.1722120400	0.4649688236	0.1089868311	-0.0817841869	0.3666461223	0.0706246785	0.2102713984	0.5072877513	0.0802830716	0.1649035802	0.5093702415	0.0637062225	0.2728983085	0.6571530808	0.0506499216	0.1953222946	0.3715637675	0.0754668725	-0.1154540230	0.5448129900	0.0770387300	-0.0947750800	0.5237612807	0.0661661433	-0.1917770844	0.6544364925	0.0484459848	-0.1275011502	0.6054833625	1.4257257418	0.0239067482	0.4873726675	1.5502355962	0.1933156364	0.4863445313	1.5613373639	-0.1477149266	0.5223234195	1.5047932493	0.3581279179	0.5309703341	1.5078341502	-0.3255873398	0.5178482010	1.4728210451	0.4615793151	0.4955986702	1.4758903867	-0.4267241825	0.6692696195	1.4676760538	0.6868461264	0.6099372800	1.4766555134	0.7111940064	0.6251111570	1.4434350510	-0.6443702985	0.5528079590	1.4474672575	-0.6634940793	0.5999357736	0.0395913049	0.2766985489	0.5940593184	0.0490008010	0.1680708272	0.5853450900	0.0399166300	-0.2017123900	0.6058920741	0.0516094674	-0.1010170125	0.6069493016	1.6553313351	0.1266854889	0.6661482144	1.6450731164	0.0012532336	0.5893328916	1.8145019692	0.0308567061	0.0000000000	0.0000000000	0.0000000000	0.0000000000	0.0000000000	0.0000000000	0.0000000000	0.0000000000	0.0000000000	0.0000000000	0.0000000000	0.0000000000	0.0000000000	0.0000000000	0.0000000000	0.0000000000	0.0000000000	0.0000000000	
